<svg xmlns="http://www.w3.org/2000/svg" style="display:none">
  <symbol id="icon-apply" viewBox="0 0 24 24">
    <g fill="#F7F7F7">
      <path d="M8.64 18.62a0.99 0.99 0 0 1-0.7-0.29l-4.99-4.99a1 1 0 1 1 1.41-1.41l4.29 4.28 10.93-10.93a1 1 0 1 1 1.41 1.41l-11.64 11.64a0.99 0.99 0 0 1-0.71 0.29z" />
    </g>
  </symbol>
  <symbol id="icon-cancel" viewBox="0 0 24 24">
    <g fill="#F7F7F7">
      <path d="M5.32 19.62a1 1 0 0 1-0.7-1.71l13.3-13.29a1 1 0 1 1 1.41 1.41l-13.31 13.29a0.99 0.99 0 0 1-0.7 0.3z" />
      <path d="M18.62 19.62a0.99 0.99 0 0 1-0.7-0.3l-13.3-13.3a1 1 0 1 1 1.41-1.41l13.29 13.31a1 1 0 0 1-0.7 1.7z" />
    </g>
  </symbol>
</svg>
